#!OML:ASF X:\für Bonn\!DataBase\2005_08_12_Daniel\c3d\Daniel.ASF
:FULLY-SPECIFIED
:DEGREES
141
root -1.98588 16.0427 -24.0421 -19.4612 215.148 -344.04
lowerback 17.9165 -3.68934 11.249
upperback 4.70416 -3.34409 1.71317
thorax -5.38628 -1.99994 -3.73094
lowerneck -2.20372 10.0194 1.48635
upperneck 1.61385 13.402 -13.2614
head 2.0549 6.35752 -4.21948
rclavicle 1.97791e-014 3.02153e-014
rhumerus -40.6415 -6.01225 -77.8279
rradius 54.821
rwrist 9.32468
rhand -32.5336 30.445
rfingers 7.12502
rthumb -5.76391 0.543359
lclavicle 1.97791e-014 3.02153e-014
lhumerus -64.0647 -1.81458 96.8334
lradius 92.4042
lwrist 16.1879
lhand -10.1257 -12.1956
lfingers 7.12502
lthumb 15.8626 17.1747
rfemur -5.43221 5.14063 20.3362
rtibia 45.9032
rfoot -28.9531 5.35523
rtoes -26.9685
lfemur -27.3153 1.87989 -18.3875
ltibia 96.9309
lfoot -11.0249 -9.02933
ltoes -8.21917
142
root -2.16755 16.1295 -24.2167 -19.0983 215.252 -344.498
lowerback 17.6767 -3.24725 11.0349
upperback 4.62683 -2.80897 1.61008
thorax -5.26331 -1.72348 -3.86132
lowerneck -1.98648 9.7297 1.34692
upperneck 1.78251 13.0237 -12.9692
head 2.0032 6.17872 -4.12048
rclavicle 4.97956e-014 -3.97569e-014
rhumerus -39.8279 -5.51659 -79.2614
rradius 56.5469
rwrist 8.73632
rhand -33.5544 30.8564
rfingers 7.12502
rthumb -6.74938 0.98401
lclavicle 4.97956e-014 -3.97569e-014
lhumerus -65.5788 -3.03721 96.8583
lradius 93.4893
lwrist 16.768
lhand -8.68479 -12.2719
lfingers 7.12502
lthumb 17.2498 16.9825
rfemur -3.86259 5.71562 20.1697
rtibia 44.7528
rfoot -28.6202 4.31429
rtoes -27.8596
lfemur -28.589 2.59299 -18.614
ltibia 95.1807
lfoot -11.3618 -9.28758
ltoes -6.5048
143
root -2.34989 16.2303 -24.3922 -18.7325 215.386 -344.965
lowerback 17.4478 -2.80723 10.7218
upperback 4.53357 -2.28792 1.54263
thorax -5.1621 -1.45415 -3.88821
lowerneck -1.87154 9.46483 1.26137
upperneck 2.04728 12.6898 -12.7993
head 2.02221 6.00917 -4.06411
rclavicle 2.45499e-014 2.06736e-014
rhumerus -39.2394 -4.38127 -80.6073
rradius 58.5143
rwrist 7.86664
rhand -34.0408 31.4379
rfingers 7.12502
rthumb -7.21893 1.58105
lclavicle 2.45499e-014 2.06736e-014
lhumerus -66.956 -4.20952 96.9044
lradius 94.2995
lwrist 17.3773
lhand -7.27142 -12.2993
lfingers 7.12502
lthumb 18.6098 16.8305
rfemur -2.25862 6.38461 20.0679
rtibia 43.4834
rfoot -27.8894 3.07057
rtoes -28.3599
lfemur -29.6307 3.24865 -18.8223
ltibia 93.0581
lfoot -11.7497 -9.32541
ltoes -5.04193
144
root -2.53647 16.3386 -24.5669 -18.4235 215.56 -345.344
lowerback 17.2321 -2.41569 10.4706
upperback 4.4408 -1.81806 1.49356
thorax -5.0775 -1.21185 -3.91272
lowerneck -1.88496 9.1945 1.13387
upperneck 2.29066 12.3493 -12.6872
head 2.05936 5.82916 -4.01443
rclavicle 5.33737e-014 3.97569e-014
rhumerus -38.8404 -2.97693 -81.884
rradius 60.7392
rwrist 7.2118
rhand -34.1215 31.8485
rfingers 7.12502
rthumb -7.29688 1.99429
lclavicle 5.33737e-014 3.97569e-014
lhumerus -68.2528 -5.24279 96.9125
lradius 95.014
lwrist 17.9695
lhand -5.89842 -12.2343
lfingers 7.12502
lthumb 19.93 16.7638
rfemur -0.605237 7.06667 20.0579
rtibia 42.0622
rfoot -26.7841 1.83656
rtoes -28.776
lfemur -30.5854 4.06289 -18.9371
ltibia 90.7811
lfoot -12.2871 -9.26024
ltoes -4.73
145
root -2.72504 16.4548 -24.7398 -18.0508 215.771 -345.781
lowerback 17.0168 -2.04224 10.0782
upperback 4.32506 -1.38993 1.45169
thorax -5.02439 -0.989326 -3.83665
lowerneck -2.00855 8.96727 1.01973
upperneck 2.62512 12.08 -12.5581
head 2.15281 5.67694 -3.95142
rclavicle -4.70126e-014 0
rhumerus -38.5633 -1.384 -83.0462
rradius 63.0949
rwrist 6.72703
rhand -33.5571 32.1535
rfingers 7.12502
rthumb -6.75207 2.2812
lclavicle -4.70126e-014 0
lhumerus -69.4955 -6.07623 96.874
lradius 95.6989
lwrist 18.4499
lhand -4.52666 -11.9365
lfingers 7.12502
lthumb 21.2481 16.9188
rfemur 0.955538 7.62328 19.9589
rtibia 40.5946
rfoot -25.2734 0.608913
rtoes -29.2452
lfemur -31.3698 4.87138 -19.1003
ltibia 88.2233
lfoot -12.5407 -9.19938
ltoes -3.83193
146
root -2.92196 16.5803 -24.9151 -17.6777 215.979 -346.202
lowerback 16.7237 -1.66655 9.63195
upperback 4.22378 -0.97646 1.42884
thorax -4.91876 -0.770917 -3.70466
lowerneck -2.17194 8.74613 1.00156
upperneck 2.96594 11.8211 -12.528
head 2.27257 5.52656 -3.93883
rclavicle 1.95803e-014 1.11319e-014
rhumerus -38.377 0.408334 -84.0737
rradius 65.3805
rwrist 6.36772
rhand -32.753 32.269
rfingers 7.12502
rthumb -5.97571 2.37331
lclavicle 1.95803e-014 1.11319e-014
lhumerus -70.7078 -6.83078 96.8152
lradius 96.3874
lwrist 19.0361
lhand -3.3783 -11.4763
lfingers 7.12502
lthumb 22.3509 17.2508
rfemur 2.47985 8.09114 19.8659
rtibia 39.0943
rfoot -23.3897 -0.664737
rtoes -29.5963
lfemur -31.9237 5.5991 -19.3053
ltibia 85.416
lfoot -12.8092 -9.1487
ltoes -3.54958
147
root -3.12294 16.7085 -25.0895 -17.3091 216.273 -346.626
lowerback 16.4437 -1.31706 9.15886
upperback 4.08436 -0.591583 1.40547
thorax -4.86956 -0.568016 -3.54749
lowerneck -2.37101 8.50326 0.90527
upperneck 3.41742 11.5439 -12.3954
head 2.42125 5.36228 -3.8755
rclavicle -3.17062e-014 8.74653e-015
rhumerus -38.355 2.26201 -84.9486
rradius 67.6511
rwrist 6.15842
rhand -31.9008 32.1423
rfingers 7.12502
rthumb -5.15295 2.22491
lclavicle -3.17062e-014 8.74653e-015
lhumerus -71.97 -7.57253 96.8162
lradius 97.0509
lwrist 19.5565
lhand -2.51256 -10.9708
lfingers 7.12502
lthumb 23.1817 17.6542
rfemur 3.915 8.41078 19.7176
rtibia 37.6555
rfoot -21.2001 -1.91794
rtoes -30.1958
lfemur -32.2852 6.17475 -19.5572
ltibia 82.3524
lfoot -12.9504 -9.09256
ltoes -3.9661
148
root -3.33355 16.8467 -25.2638 -16.9427 216.586 -346.987
lowerback 16.0627 -0.957474 8.8064
upperback 3.96021 -0.184629 1.34942
thorax -4.74991 -0.351708 -3.4947
lowerneck -2.60273 8.22668 0.866264
upperneck 3.86175 11.2219 -12.2746
head 2.57647 5.17675 -3.82899
rclavicle 2.76808e-014 -3.49861e-014
rhumerus -38.4396 4.10561 -85.7445
rradius 69.9023
rwrist 6.11227
rhand -31.2337 31.6767
rfingers 7.12502
rthumb -4.50877 1.74466
lclavicle 2.76808e-014 -3.49861e-014
lhumerus -73.2834 -8.421 96.7984
lradius 97.7238
lwrist 20.0056
lhand -1.97287 -10.4165
lfingers 7.12502
lthumb 23.6994 18.1425
rfemur 5.18698 8.63467 19.5607
rtibia 36.2981
rfoot -18.6844 -3.13991
rtoes -30.4674
lfemur -32.4695 6.66255 -19.7657
ltibia 79.0575
lfoot -12.9929 -8.93548
ltoes -4.43598
149
root -3.56246 16.9875 -25.4326 -16.5514 216.971 -347.366
lowerback 15.5942 -0.657185 8.468
upperback 3.82919 0.142006 1.29255
thorax -4.60228 -0.173225 -3.43026
lowerneck -2.75942 7.98322 0.746833
upperneck 4.25551 10.9361 -12.1054
head 2.69532 5.01409 -3.75365
rclavicle 4.4975e-014 -2.06736e-014
rhumerus -38.6134 6.05253 -86.4713
rradius 72.0805
rwrist 6.29705
rhand -30.8774 31.1449
rfingers 7.12502
rthumb -4.16479 1.2059
lclavicle 4.4975e-014 -2.06736e-014
lhumerus -74.6222 -9.12868 96.7676
lradius 98.3916
lwrist 20.3732
lhand -1.69609 -9.89093
lfingers 7.12502
lthumb 23.9649 18.6333
rfemur 6.32619 8.76682 19.2569
rtibia 35.0914
rfoot -15.9061 -4.38727
rtoes -30.0459
lfemur -32.4555 6.96549 -20.0897
ltibia 75.5602
lfoot -13.021 -8.53957
ltoes -4.63112
150
root -3.79639 17.1232 -25.598 -16.2444 217.391 -347.696
lowerback 15.1603 -0.410025 8.19233
upperback 3.71287 0.410463 1.21898
thorax -4.46463 -0.0250878 -3.40369
lowerneck -2.85696 7.76708 0.584033
upperneck 4.60133 10.6796 -11.8917
head 2.78399 4.87118 -3.65657
rclavicle 3.47873e-016 -1.98785e-014
rhumerus -38.8243 8.13446 -87.172
rradius 74.2232
rwrist 6.4258
rhand -30.6683 30.5381
rfingers 7.12502
rthumb -3.9628 0.595164
lclavicle 3.47873e-016 -1.98785e-014
lhumerus -75.5486 -9.83228 96.7062
lradius 98.8487
lwrist 20.7048
lhand -1.69537 -9.21353
lfingers 7.12502
lthumb 23.9655 19.3106
rfemur 7.41602 8.78078 18.9278
rtibia 34.0049
rfoot -12.9826 -5.56738
rtoes -29.5919
lfemur -32.254 7.20093 -20.385
ltibia 71.9469
lfoot -13.1781 -7.95288
ltoes -4.76042
151
root -4.03482 17.2516 -25.7604 -15.9562 217.84 -348.001
lowerback 14.7333 -0.184093 7.92569
upperback 3.58672 0.656483 1.1796
thorax -4.34454 0.110449 -3.33847
lowerneck -3.02522 7.54276 0.309709
upperneck 5.01733 10.4208 -11.5877
head 2.89664 4.72199 -3.5056
rclavicle 1.31695e-014 7.95139e-016
rhumerus -39.1827 10.2511 -87.8159
rradius 76.3984
rwrist 6.55777
rhand -30.6505 30.069
rfingers 7.12502
rthumb -3.94562 0.125834
lclavicle 1.31695e-014 7.95139e-016
lhumerus -76.2156 -10.4554 96.7058
lradius 99.2642
lwrist 20.964
lhand -1.82531 -8.31253
lfingers 7.12502
lthumb 23.8409 20.228
rfemur 8.39906 8.6703 18.5317
rtibia 33.0221
rfoot -9.92749 -6.64315
rtoes -29.3427
lfemur -31.9532 7.3506 -20.6661
ltibia 68.2432
lfoot -13.3306 -7.40109
ltoes -4.56658
